<svg width="66" height="65" viewBox="0 0 66 65" fill="none" xmlns="http://www.w3.org/2000/svg">
<rect x="0.5" width="65" height="65" rx="32.5" fill="white"/>
<g clip-path="url(#clip0_62_2818)">
<path fill-rule="evenodd" clip-rule="evenodd" d="M48.6145 22.0924C49.0597 22.5378 49.3098 23.1418 49.3098 23.7715C49.3098 24.4013 49.0597 25.0053 48.6145 25.4507L30.813 43.2521C30.5778 43.4874 30.2985 43.674 29.9911 43.8014C29.6837 43.9287 29.3542 43.9943 29.0215 43.9943C28.6888 43.9943 28.3593 43.9287 28.0519 43.8014C27.7445 43.674 27.4652 43.4874 27.23 43.2521L18.3855 34.4092C18.1586 34.1901 17.9777 33.928 17.8532 33.6383C17.7287 33.3485 17.6632 33.0368 17.6605 32.7215C17.6577 32.4061 17.7178 32.0934 17.8373 31.8015C17.9567 31.5096 18.133 31.2445 18.356 31.0215C18.579 30.7985 18.8442 30.6221 19.1361 30.5027C19.4279 30.3833 19.7407 30.3232 20.056 30.3259C20.3714 30.3287 20.683 30.3942 20.9728 30.5187C21.2626 30.6431 21.5246 30.8241 21.7437 31.0509L29.0207 38.3279L45.2546 22.0924C45.4752 21.8717 45.7371 21.6966 46.0253 21.5772C46.3136 21.4577 46.6225 21.3963 46.9345 21.3963C47.2466 21.3963 47.5555 21.4577 47.8438 21.5772C48.132 21.6966 48.3939 21.8717 48.6145 22.0924Z" fill="#FCCE0B"/>
</g>
<defs>
<clipPath id="clip0_62_2818">
<rect width="38" height="38" fill="white" transform="translate(14.5 14)"/>
</clipPath>
</defs>
</svg>
